<?xml version="1.0" encoding="utf-8"?>
<!-- Generator: Adobe Illustrator 26.0.1, SVG Export Plug-In . SVG Version: 6.00 Build 0)  -->
<svg version="1.1" id="katman_1" xmlns="http://www.w3.org/2000/svg" xmlns:xlink="http://www.w3.org/1999/xlink" x="0px" y="0px"
	 viewBox="0 0 217.8 186.1" style="enable-background:new 0 0 217.8 186.1;" xml:space="preserve">
<style type="text/css">
	.st0{fill-rule:evenodd;clip-rule:evenodd;fill:#FFFFFF;stroke:#1D1D1B;stroke-miterlimit:10;}
</style>
<g id="svgg">
	<path id="path0" class="st0" d="M192.8,73c-0.1,0-5.6-0.8-12.1-1.7l-11.9-1.6l-1.3-1c-0.7-0.6-2-1.7-2.9-2.5
		c-10.3-9.6-33.9-11.7-49-4.4c-21.6,10.4-6.9,29.6,21.9,28.6c14.4-0.5,25.5-4.8,29.3-11.3c1.4-2.4,1.6-2.5,14.3-4.2
		C190.4,73.7,193.7,73.1,192.8,73 M178.5,110.7c-14.8-2.9-12.9-2.4-13.8-3.9c-3.4-5.8-15.2-9.9-30.5-10.7
		c-19.3-0.9-35.6,10.5-29.6,20.8c8.5,14.4,43.8,16.3,58.2,3.2c1-0.9,2.3-2,3-2.5l1.2-0.9l12-1.6c6.6-0.9,12-1.7,12-1.8
		S185.4,112,178.5,110.7 M146.1,28.3c-3.3-5.4-21.5-7.6-31.7-3.8c-1.5,0.5-2.3,0.7-5.3,0.8c-26.9,1.4-47.9,28.9-25.9,34.1
		c16.7,4,42.1-11.2,41.5-24.7l-0.1-2.2l1.3-0.5c5.5-2,14.9-3,20-2C146.7,30.2,146.8,29.5,146.1,28.3 M146,154.3
		c-4.3,1.2-13.2,0.4-19.2-1.6l-2.3-0.8l0.1-2.1c0.6-16.8-35.8-33.2-47.9-21.6c-10.5,10,10.5,29.9,32.6,31c2.2,0.1,3.5,0.3,4.4,0.6
		c10.9,3.9,29.1,1.9,32.3-3.5C146.7,154.9,146.7,154.1,146,154.3 M93.4,87.6C92,80,88,76.3,75.3,70.8c-5.2-2.2-6.3-3-9.2-6.2
		c-1.8-2-3.1-4.5-4.1-7.6c-1.9-6.4-5.7-12.4-9.6-15.4c-10.7-8-26.5-5.4-33.8,5.6c-3.9,5.9-4.7,11-2.6,16.9c1,2.8,1.5,3.9,4.2,8.2
		c8,13,7.5,24-1.8,39c-4.7,7.6-5.4,12-2.9,19.1c5.6,15.9,27.3,20,39,7.4c2.2-2.3,2.8-3.5,3.9-7.5c2.9-10.2,6.1-13.3,18.4-18.2
		c8.2-3.2,8.6-3.5,11.7-7C92.5,100.6,94.5,93.7,93.4,87.6"/>
</g>
</svg>
